<svg width="72" height="11" viewBox="0 0 72 11" fill="none" xmlns="http://www.w3.org/2000/svg">
<path d="M11.7955 3.47246V7.38797C11.7955 8.42499 11.5182 9.22946 10.9635 9.7951C10.4089 10.367 9.61562 10.6499 8.57728 10.6499C7.46154 10.6499 6.65538 10.2853 6.16523 9.54999C5.9137 9.9208 5.58479 10.1973 5.19138 10.3796C4.79797 10.5619 4.31427 10.6499 3.75317 10.6499C2.71483 10.6499 1.92801 10.367 1.37337 9.7951C0.825172 9.22317 0.547852 8.4187 0.547852 7.38797V3.47246H2.25048V7.24342C2.25048 7.91591 2.37302 8.41242 2.61164 8.73295C2.85027 9.05348 3.23723 9.2106 3.76607 9.2106C4.29492 9.2106 4.68188 9.0472 4.93985 8.72666C5.19138 8.40613 5.32036 7.90962 5.32036 7.24342V3.47246H7.02299V7.24342C7.02299 7.90962 7.15198 8.39985 7.4035 8.72666C7.65503 9.0472 8.04843 9.2106 8.57728 9.2106C9.10613 9.2106 9.48664 9.05348 9.73171 8.73295C9.97034 8.41242 10.0929 7.91591 10.0929 7.24342V3.47246H11.7955Z" fill="#7A68EE"/>
<path d="M21.0697 3.47246V10.5619H19.4509V9.64426C19.1671 9.98365 18.8188 10.235 18.4061 10.3985C17.9933 10.5681 17.5354 10.6499 17.0388 10.6499C16.3294 10.6499 15.6974 10.499 15.1363 10.1973C14.5752 9.89566 14.1431 9.47457 13.827 8.9215C13.511 8.37471 13.3562 7.73365 13.3562 7.01088C13.3562 6.28811 13.511 5.64705 13.827 5.10654C14.1431 4.55976 14.5752 4.13867 15.1363 3.83699C15.6974 3.53531 16.3294 3.38447 17.0388 3.38447C17.5096 3.38447 17.9417 3.46618 18.3416 3.6233C18.735 3.78042 19.0768 4.01925 19.367 4.32721V3.47246H21.0697ZM18.7866 8.62611C19.1929 8.21759 19.3993 7.68337 19.3993 7.01716C19.3993 6.35096 19.1929 5.81674 18.7866 5.40822C18.3803 4.9997 17.8579 4.79858 17.2323 4.79858C16.6067 4.79858 16.0908 4.9997 15.6845 5.40822C15.2781 5.81674 15.0782 6.35096 15.0782 7.01716C15.0782 7.68337 15.2781 8.21759 15.6845 8.62611C16.0908 9.03463 16.6067 9.23574 17.2323 9.23574C17.8579 9.23574 18.3738 9.03463 18.7866 8.62611Z" fill="#7A68EE"/>
<path d="M30.1181 3.47246L26.9966 10.5619H25.2359L22.1209 3.47246H23.8945L26.1582 8.73295L28.4864 3.47246H30.1181Z" fill="#7A68EE"/>
<path d="M36.4126 8.48155L37.3091 9.506C36.9931 9.88938 36.5803 10.1722 36.0837 10.367C35.5871 10.5619 35.0196 10.6561 34.394 10.6561C33.5943 10.6561 32.8913 10.499 32.2851 10.1911C31.6788 9.88309 31.208 9.44943 30.8726 8.89636C30.5437 8.34328 30.376 7.71479 30.376 7.01716C30.376 6.32582 30.5373 5.70361 30.8597 5.15054C31.1822 4.59747 31.6272 4.16381 32.1948 3.85584C32.7623 3.54788 33.4072 3.39076 34.1231 3.39076C34.8067 3.39076 35.4259 3.53531 35.9805 3.82442C36.5416 4.11353 36.9802 4.52205 37.3091 5.05627C37.638 5.59048 37.7992 6.21898 37.7992 6.93546L32.227 7.99761C32.4011 8.40613 32.6785 8.71409 33.059 8.92778C33.4395 9.14147 33.8974 9.24831 34.4327 9.24831C35.226 9.24831 35.8902 8.99692 36.4126 8.48155ZM32.6075 5.32023C32.2206 5.71618 32.0271 6.25669 32.0271 6.92917V6.94174L36.1418 6.1687C36.0257 5.73504 35.787 5.38308 35.4259 5.11911C35.0647 4.85515 34.6326 4.72316 34.1231 4.72316C33.4975 4.72316 32.9945 4.92428 32.6075 5.32023Z" fill="#7A68EE"/>
<path d="M43.5263 10.1785C43.3263 10.3356 43.0812 10.455 42.7975 10.5367C42.5137 10.6184 42.2106 10.6561 41.8881 10.6561C41.0884 10.6561 40.4693 10.455 40.0372 10.0465C39.5986 9.63798 39.3858 9.0472 39.3858 8.26787V1.90752H41.0884V3.52903H43.0361V4.85515H41.0884V8.23016C41.0884 8.57583 41.1787 8.83979 41.3528 9.02206C41.527 9.20432 41.7785 9.29231 42.0945 9.29231C42.475 9.29231 42.791 9.19803 43.049 9.0032L43.5263 10.1785Z" fill="#7A68EE"/>
<path d="M50.1239 8.48155L51.0204 9.506C50.7044 9.88938 50.2916 10.1722 49.795 10.367C49.2984 10.5619 48.7309 10.6561 48.1053 10.6561C47.3056 10.6561 46.6026 10.499 45.9963 10.1911C45.3901 9.88309 44.9193 9.44943 44.5839 8.89636C44.255 8.34328 44.0873 7.71479 44.0873 7.01716C44.0873 6.32582 44.2486 5.70361 44.571 5.15054C44.8935 4.59747 45.3385 4.16381 45.9061 3.85584C46.4736 3.54788 47.1185 3.39076 47.8344 3.39076C48.518 3.39076 49.1372 3.53531 49.6918 3.82442C50.2529 4.11353 50.6915 4.52205 51.0204 5.05627C51.3493 5.59048 51.5105 6.21898 51.5105 6.93546L45.9383 7.99761C46.1124 8.40613 46.3898 8.71409 46.7703 8.92778C47.1508 9.14147 47.6087 9.24831 48.144 9.24831C48.9373 9.24831 49.5951 8.99692 50.1239 8.48155ZM46.3124 5.32023C45.9254 5.71618 45.7319 6.25669 45.7319 6.92917V6.94174L49.8466 6.1687C49.7305 5.73504 49.4919 5.38308 49.1307 5.11911C48.7696 4.85515 48.3375 4.72316 47.828 4.72316C47.2088 4.72316 46.6993 4.92428 46.3124 5.32023Z" fill="#7A68EE"/>
<path d="M54.4514 10.1911C53.8516 9.88309 53.3808 9.44943 53.0455 8.89636C52.7101 8.34328 52.5424 7.71479 52.5424 7.01716C52.5424 6.31954 52.7101 5.69104 53.0455 5.14425C53.3808 4.59747 53.8452 4.16381 54.445 3.85584C55.0383 3.54788 55.722 3.39076 56.483 3.39076C57.1989 3.39076 57.8309 3.53531 58.3726 3.81813C58.9144 4.10096 59.3207 4.50948 59.5916 5.03741L58.2823 5.77903C58.076 5.45222 57.8115 5.2071 57.502 5.0437C57.186 4.88029 56.8441 4.79858 56.4765 4.79858C55.838 4.79858 55.3157 4.9997 54.8964 5.40194C54.4772 5.80417 54.2709 6.34468 54.2709 7.01716C54.2709 7.68965 54.4772 8.23016 54.89 8.63239C55.3027 9.03463 55.8316 9.23574 56.4765 9.23574C56.8506 9.23574 57.1924 9.15404 57.502 8.99063C57.818 8.82722 58.076 8.58211 58.2823 8.25529L59.5916 8.99692C59.3078 9.53114 58.9015 9.93966 58.3597 10.2225C57.818 10.5116 57.1924 10.6561 56.4894 10.6561C55.7284 10.6561 55.0512 10.5053 54.4514 10.1911Z" fill="#7A68EE"/>
<path d="M67.3308 4.17638C67.8854 4.69802 68.1627 5.47107 68.1627 6.5018V10.5619H66.4601V6.71549C66.4601 6.09328 66.3118 5.62819 66.0087 5.31395C65.712 4.9997 65.2799 4.84258 64.7252 4.84258C64.0996 4.84258 63.6031 5.02484 63.2419 5.39565C62.8807 5.76018 62.6937 6.2944 62.6937 6.97945V10.5619H60.9911V0.713379H62.6937V4.29579C62.9775 4.00668 63.3257 3.78042 63.7385 3.6233C64.1512 3.46618 64.6156 3.39076 65.1186 3.39076C66.0409 3.39704 66.7761 3.65473 67.3308 4.17638Z" fill="#7A68EE"/>
<path d="M70.0846 10.3482C69.8654 10.1408 69.7557 9.87681 69.7557 9.55628C69.7557 9.22946 69.8654 8.96549 70.0782 8.75809C70.291 8.55697 70.5554 8.45013 70.8779 8.45013C71.1939 8.45013 71.4583 8.55069 71.6776 8.75809C71.8904 8.95921 72.0001 9.22946 72.0001 9.55628C72.0001 9.87681 71.8904 10.1408 71.6712 10.3482C71.4519 10.5556 71.1875 10.6624 70.8779 10.6624C70.5619 10.6561 70.3039 10.5556 70.0846 10.3482Z" fill="#7A68EE"/>
</svg>
