<svg width="128" height="128" viewBox="0 0 128 128" fill="none" xmlns="http://www.w3.org/2000/svg">
<g clip-path="url(#clip0)">
<rect width="128" height="128" fill="white"/>
<rect width="128" height="128" fill="#7A68EE"/>
<path opacity="0.8" d="M46.3999 51.4667C46.3999 68.5556 60.2443 82.4 77.3332 82.4C94.4221 82.4 108.267 68.5556 108.267 51.4667H46.3999V51.4667Z" fill="white"/>
<g opacity="0.9" filter="url(#filter0_d)">
<path d="M19.7334 51.4667C19.7334 68.5556 33.5778 82.4 50.6667 82.4C67.7556 82.4 81.6001 68.5556 81.6001 51.4667H19.7334V51.4667Z" fill="white"/>
</g>
<mask id="mask0" mask-type="alpha" maskUnits="userSpaceOnUse" x="19" y="51" width="63" height="32">
<path opacity="0.9" d="M19.7334 51.4667C19.7334 68.5556 33.5778 82.4 50.6667 82.4C67.7556 82.4 81.6001 68.5556 81.6001 51.4667H19.7334V51.4667Z" fill="white"/>
</mask>
<g mask="url(#mask0)">
</g>
</g>
<defs>
<filter id="filter0_d" x="-24.2666" y="-16.5333" width="209.867" height="178.933" filterUnits="userSpaceOnUse" color-interpolation-filters="sRGB">
<feFlood flood-opacity="0" result="BackgroundImageFix"/>
<feColorMatrix in="SourceAlpha" type="matrix" values="0 0 0 0 0 0 0 0 0 0 0 0 0 0 0 0 0 0 127 0"/>
<feOffset dx="30" dy="6"/>
<feGaussianBlur stdDeviation="37"/>
<feColorMatrix type="matrix" values="0 0 0 0 0.478431 0 0 0 0 0.407843 0 0 0 0 0.933333 0 0 0 0.15 0"/>
<feBlend mode="normal" in2="BackgroundImageFix" result="effect1_dropShadow"/>
<feBlend mode="normal" in="SourceGraphic" in2="effect1_dropShadow" result="shape"/>
</filter>
<clipPath id="clip0">
<rect width="128" height="128" fill="white"/>
</clipPath>
</defs>
</svg>
